<?xml version="1.0" standalone="no"?>
<!DOCTYPE svg PUBLIC "-//W3C//DTD SVG 20010904//EN"
 "http://www.w3.org/TR/2001/REC-SVG-20010904/DTD/svg10.dtd">
<svg version="1.0" xmlns="http://www.w3.org/2000/svg"
 width="2048.000000pt" height="2048.000000pt" viewBox="0 0 2048.000000 2048.000000"
 preserveAspectRatio="xMidYMid meet">

<g transform="translate(0.000000,2048.000000) scale(0.100000,-0.100000)"
fill="#000000" stroke="none">
<path d="M16825 20323 c72 -216 186 -536 390 -1098 134 -370 464 -1366 786
-2375 22 -69 49 -150 59 -180 10 -30 32 -98 48 -150 17 -52 120 -376 230 -720
110 -344 263 -823 340 -1065 236 -741 251 -790 261 -804 14 -21 43 1 145 112
130 140 167 193 160 225 -8 31 -122 382 -390 1202 -931 2842 -1620 4913 -1643
4940 -13 16 -50 24 -198 45 -100 14 -196 25 -212 25 l-30 0 54 -157z"/>
<path d="M16385 19995 c-38 -12 -90 -31 -115 -42 -124 -56 -1418 -670 -2080
-988 -283 -136 -551 -264 -595 -285 -293 -139 -1052 -513 -1062 -523 -19 -19
17 -147 143 -514 206 -602 269 -791 625 -1898 591 -1838 896 -2765 914 -2783
7 -8 168 33 1360 339 1062 273 1500 387 2245 584 420 111 479 127 542 146 l66
19 -25 83 c-33 110 -274 859 -378 1177 -46 140 -126 386 -178 545 -616 1887
-1365 4141 -1380 4153 -8 7 -33 3 -82 -13z"/>
<path d="M11985 17853 c-269 -94 -1409 -503 -1525 -547 -20 -8 -191 -70 -380
-139 -190 -69 -426 -156 -525 -192 -158 -58 -294 -108 -725 -265 -58 -21 -179
-66 -270 -100 -91 -34 -262 -97 -380 -140 -118 -43 -289 -106 -380 -140 -91
-34 -194 -72 -230 -85 -36 -13 -137 -50 -225 -83 -256 -95 -620 -231 -745
-277 -402 -149 -721 -273 -732 -284 -8 -7 13 -80 77 -281 18 -58 68 -215 110
-350 42 -135 128 -405 190 -600 62 -195 183 -578 270 -850 428 -1348 865
-2699 912 -2818 31 -76 47 -82 140 -52 121 40 914 322 1038 370 28 10 165 61
305 111 140 51 399 145 575 210 l320 117 130 -129 c134 -132 160 -155 255
-216 181 -117 432 -176 655 -153 269 28 495 136 680 325 206 211 314 485 315
800 0 105 3 110 73 135 34 12 103 37 152 55 50 19 178 66 285 105 107 39 218
79 245 90 28 10 131 49 230 85 609 224 912 351 902 378 -5 14 -118 368 -207
647 -34 107 -107 335 -162 505 -55 171 -120 373 -145 450 -24 77 -50 158 -58
180 -8 22 -168 517 -355 1100 -546 1696 -666 2062 -679 2077 -3 3 -64 -14
-136 -39z"/>
<path d="M5065 15219 c-203 -72 -413 -145 -465 -164 -126 -44 -401 -143 -690
-248 -129 -47 -318 -115 -420 -152 -102 -36 -207 -74 -235 -85 -27 -11 -158
-58 -290 -106 -132 -47 -328 -117 -435 -156 -330 -119 -607 -217 -798 -283
-208 -72 -183 -72 -352 -1 -66 27 -88 33 -97 23 -13 -14 -53 -239 -53 -303 0
-481 831 -3249 1292 -4304 104 -239 149 -309 265 -419 56 -54 119 -106 139
-117 l36 -19 33 38 c18 21 50 76 71 122 l38 85 70 24 c77 26 970 351 1076 391
36 13 283 104 550 201 267 97 546 198 620 226 74 27 164 60 200 73 108 38 801
298 1020 383 262 101 359 142 366 153 5 10 -86 307 -296 964 -70 220 -146 456
-168 525 -244 770 -1001 3082 -1064 3248 -7 17 -19 32 -28 31 -8 0 -181 -59
-385 -130z"/>
<path d="M10270 10737 c0 -2 -50 -141 -111 -308 -61 -167 -130 -358 -154 -424
-23 -66 -203 -561 -400 -1100 -477 -1308 -463 -1269 -495 -1360 -15 -44 -60
-168 -100 -275 -39 -107 -101 -276 -136 -375 -73 -202 -153 -420 -242 -665
-76 -208 -210 -579 -297 -820 -36 -102 -103 -284 -147 -405 -44 -121 -126
-350 -183 -510 -57 -159 -144 -404 -194 -543 -50 -139 -91 -259 -91 -267 0
-19 6 -22 210 -98 464 -174 690 -253 837 -295 54 -15 74 -17 81 -9 51 64 316
751 757 1967 35 96 94 256 130 355 37 99 80 216 95 260 35 98 247 676 321 873
43 113 55 138 61 121 5 -12 11 -162 13 -333 3 -171 7 -383 10 -471 3 -88 5
-710 5 -1382 l0 -1223 620 0 620 0 1 273 c0 149 2 310 4 357 1 47 4 506 6
1020 2 514 6 1138 9 1385 l5 450 22 -60 c12 -33 70 -193 128 -355 143 -396
314 -867 331 -910 7 -19 60 -165 118 -325 446 -1235 746 -2015 775 -2015 23 0
220 65 481 158 435 155 630 230 630 242 0 25 -153 480 -315 940 -52 147 -235
658 -295 825 -34 94 -74 206 -90 250 -15 44 -37 105 -48 135 -12 30 -69 188
-127 350 -59 162 -125 345 -147 405 -22 61 -101 277 -175 480 -126 346 -231
632 -458 1255 -51 140 -141 386 -200 545 -59 160 -140 380 -180 490 -40 110
-112 306 -160 435 -48 129 -109 294 -136 365 -185 504 -210 565 -226 565 -33
0 -183 -44 -378 -111 l-207 -70 -186 70 c-198 74 -382 141 -388 141 -2 0 -4
-2 -4 -3z"/>
<path d="M13877 3154 c-189 -51 -656 -219 -663 -239 -4 -10 93 -295 256 -750
39 -110 84 -236 100 -280 15 -44 56 -156 90 -250 34 -93 74 -206 90 -250 15
-44 67 -188 115 -320 300 -829 378 -1041 384 -1048 4 -4 18 18 30 50 12 32 43
103 68 158 l45 100 52 1 c37 1 105 21 246 73 107 40 233 86 280 103 95 34 164
67 198 94 l23 19 -50 125 c-98 249 -245 578 -441 990 -150 315 -709 1427 -724
1439 -7 5 -45 -1 -99 -15z"/>
<path d="M7739 3143 c-109 -287 -888 -2601 -904 -2686 -7 -36 -6 -37 38 -56
82 -35 470 -178 589 -217 84 -27 121 -35 129 -27 19 19 282 789 664 1943 232
701 267 812 257 822 -18 18 -466 176 -634 223 -112 32 -126 32 -139 -2z"/>
<path d="M10467 3043 c-4 -3 -7 -690 -7 -1525 l0 -1518 405 0 405 0 -2 1523
-3 1522 -396 3 c-217 1 -398 -1 -402 -5z"/>
</g>
</svg>
